# xmcd CD database file
# Copyright (C) 1995-1998 Ti Kan
#
# Track frame offsets:
#	150
#	13384
#	29489
#	44385
#	53945
#	70045
#	85461
#	96077
#	111172
#	127555
#	140018
#	153405
#	166945
#	181710
#	206002
#	211410
#
# Disc length: 2967 seconds
#
# Revision: 1
# Processed by: cddbd v1.4b41PL1 Copyright (c) Steve Scherf et al.
# Submitted via: CDex 1.30Release
#
DISCID=dc0b9510
DTITLE=Rawling Brothers, The - Decade
DYEAR=1996
DGENRE=Country
TTITLE0=Burgers and Fries
TTITLE1=Can You Read My Mind
TTITLE2=Misty Blue
TTITLE3=Diamonds
TTITLE4=Have Mercy
TTITLE5=Nobody Knows
TTITLE6=Wings on my Heart
TTITLE7=Somebody Listens to my Heart
TTITLE8=Write Your Name in the Sky
TTITLE9=Always and Forever
TTITLE10=I'm so Sorry
TTITLE11=Guiding Hand
TTITLE12=Robin's Song
TTITLE13=Hold On
TTITLE14=Quietly
TTITLE15=I Am
EXTD=YEAR: 1996 ID3G:   2
EXTT0=
EXTT1=
EXTT2=
EXTT3=
EXTT4=
EXTT5=
EXTT6=
EXTT7=
EXTT8=
EXTT9=
EXTT10=
EXTT11=
EXTT12=
EXTT13=
EXTT14=
EXTT15=
PLAYORDER=
